<svg xmlns="http://www.w3.org/2000/svg" xmlns:xlink="http://www.w3.org/1999/xlink" width="1200" zoomAndPan="magnify" viewBox="0 0 900 675.000002" height="900" preserveAspectRatio="xMidYMid meet" version="1.0"><defs><g/><clipPath id="ecd4cd7515"><path d="M 115 45 L 899.332031 45 L 899.332031 152 L 115 152 Z M 115 45 " clip-rule="nonzero"/></clipPath><clipPath id="153f1af6f6"><path d="M 115 213 L 899.332031 213 L 899.332031 316 L 115 316 Z M 115 213 " clip-rule="nonzero"/></clipPath><clipPath id="0ee9908996"><path d="M 210.285156 81.867188 L 240.011719 81.867188 L 240.011719 111.59375 L 210.285156 111.59375 Z M 210.285156 81.867188 " clip-rule="nonzero"/></clipPath><clipPath id="a0ac46982c"><path d="M 225.148438 81.867188 C 216.9375 81.867188 210.285156 88.523438 210.285156 96.730469 C 210.285156 104.941406 216.9375 111.59375 225.148438 111.59375 C 233.359375 111.59375 240.011719 104.941406 240.011719 96.730469 C 240.011719 88.523438 233.359375 81.867188 225.148438 81.867188 Z M 225.148438 81.867188 " clip-rule="nonzero"/></clipPath><clipPath id="60ef3a9eb1"><path d="M 210.285156 170.859375 L 240.011719 170.859375 L 240.011719 200.585938 L 210.285156 200.585938 Z M 210.285156 170.859375 " clip-rule="nonzero"/></clipPath><clipPath id="a2db937c49"><path d="M 225.148438 170.859375 C 216.9375 170.859375 210.285156 177.511719 210.285156 185.722656 C 210.285156 193.929688 216.9375 200.585938 225.148438 200.585938 C 233.359375 200.585938 240.011719 193.929688 240.011719 185.722656 C 240.011719 177.511719 233.359375 170.859375 225.148438 170.859375 Z M 225.148438 170.859375 " clip-rule="nonzero"/></clipPath><clipPath id="4f28db178d"><path d="M 803.558594 249.417969 L 833.289062 249.417969 L 833.289062 279.144531 L 803.558594 279.144531 Z M 803.558594 249.417969 " clip-rule="nonzero"/></clipPath><clipPath id="fa0d522953"><path d="M 818.421875 249.417969 C 810.214844 249.417969 803.558594 256.070312 803.558594 264.28125 C 803.558594 272.488281 810.214844 279.144531 818.421875 279.144531 C 826.632812 279.144531 833.289062 272.488281 833.289062 264.28125 C 833.289062 256.070312 826.632812 249.417969 818.421875 249.417969 Z M 818.421875 249.417969 " clip-rule="nonzero"/></clipPath><clipPath id="9d735be626"><path d="M 330.613281 331.199219 L 360.339844 331.199219 L 360.339844 360.925781 L 330.613281 360.925781 Z M 330.613281 331.199219 " clip-rule="nonzero"/></clipPath><clipPath id="dd0aabb6e1"><path d="M 345.476562 331.199219 C 337.269531 331.199219 330.613281 337.851562 330.613281 346.0625 C 330.613281 354.269531 337.269531 360.925781 345.476562 360.925781 C 353.6875 360.925781 360.339844 354.269531 360.339844 346.0625 C 360.339844 337.851562 353.6875 331.199219 345.476562 331.199219 Z M 345.476562 331.199219 " clip-rule="nonzero"/></clipPath><clipPath id="dd5d6f9e5a"><path d="M 210.285156 412.851562 L 240.011719 412.851562 L 240.011719 442.578125 L 210.285156 442.578125 Z M 210.285156 412.851562 " clip-rule="nonzero"/></clipPath><clipPath id="aaa8761d3e"><path d="M 225.148438 412.851562 C 216.9375 412.851562 210.285156 419.507812 210.285156 427.714844 C 210.285156 435.925781 216.9375 442.578125 225.148438 442.578125 C 233.359375 442.578125 240.011719 435.925781 240.011719 427.714844 C 240.011719 419.507812 233.359375 412.851562 225.148438 412.851562 Z M 225.148438 412.851562 " clip-rule="nonzero"/></clipPath><clipPath id="3217b7ef34"><path d="M 285.371094 562.40625 L 315.097656 562.40625 L 315.097656 592.132812 L 285.371094 592.132812 Z M 285.371094 562.40625 " clip-rule="nonzero"/></clipPath><clipPath id="84ed5f38cc"><path d="M 300.234375 562.40625 C 292.027344 562.40625 285.371094 569.0625 285.371094 577.269531 C 285.371094 585.480469 292.027344 592.132812 300.234375 592.132812 C 308.445312 592.132812 315.097656 585.480469 315.097656 577.269531 C 315.097656 569.0625 308.445312 562.40625 300.234375 562.40625 Z M 300.234375 562.40625 " clip-rule="nonzero"/></clipPath></defs><g clip-path="url(#ecd4cd7515)"><path stroke-linecap="butt" transform="matrix(0.74888, 0.0040159, -0.0040159, 0.74888, 166.321078, 92.237705)" fill="none" stroke-linejoin="miter" d="M -0.000147481 5.999314 L 961.962725 5.999488 " stroke="#402924" stroke-width="12" stroke-opacity="1" stroke-miterlimit="4"/></g><g clip-path="url(#153f1af6f6)"><path stroke-linecap="butt" transform="matrix(0.74889, 0.000469037, -0.000469037, 0.74889, 166.305135, 259.46267)" fill="none" stroke-linejoin="miter" d="M -0.00205427 6.001361 L 961.941962 5.998732 " stroke="#402924" stroke-width="12" stroke-opacity="1" stroke-miterlimit="4"/></g><path stroke-linecap="butt" transform="matrix(0.748891, 0.000000000000000022, -0.000000000000000022, 0.748891, 166.296972, 178.007315)" fill="none" stroke-linejoin="miter" d="M -0.00012983 5.999122 L 961.948951 5.999122 " stroke="#402924" stroke-width="12" stroke-opacity="1" stroke-miterlimit="4"/><path stroke-linecap="butt" transform="matrix(0.748891, 0, 0, 0.748891, 166.302326, 341.568159)" fill="none" stroke-linejoin="miter" d="M -0.00206258 6.001333 L 961.941802 6.001333 " stroke="#402924" stroke-width="12" stroke-opacity="1" stroke-miterlimit="4"/><path stroke-linecap="butt" transform="matrix(0.748891, 0, 0, 0.748891, 91.017037, 572.777215)" fill="none" stroke-linejoin="miter" d="M -0.00188542 5.998629 L 1062.470903 5.998629 " stroke="#402924" stroke-width="12" stroke-opacity="1" stroke-miterlimit="4"/><path stroke-linecap="butt" transform="matrix(0.748891, 0, 0, 0.748891, 166.302326, 423.222272)" fill="none" stroke-linejoin="miter" d="M -0.00206258 5.998971 L 961.941802 5.998971 " stroke="#402924" stroke-width="12" stroke-opacity="1" stroke-miterlimit="4"/><g fill="#402924" fill-opacity="1"><g transform="translate(21.320843, 110.882128)"><g><path d="M 11 0.3125 C 9.175781 0.3125 7.582031 -0.0195312 6.21875 -0.6875 C 4.851562 -1.363281 3.789062 -2.304688 3.03125 -3.515625 C 2.28125 -4.722656 1.90625 -6.128906 1.90625 -7.734375 L 1.90625 -22.0625 L 6.40625 -22.0625 L 6.40625 -8.09375 C 6.40625 -7.238281 6.59375 -6.476562 6.96875 -5.8125 C 7.351562 -5.144531 7.890625 -4.617188 8.578125 -4.234375 C 9.273438 -3.859375 10.082031 -3.671875 11 -3.671875 C 11.925781 -3.671875 12.734375 -3.859375 13.421875 -4.234375 C 14.117188 -4.617188 14.65625 -5.144531 15.03125 -5.8125 C 15.40625 -6.476562 15.59375 -7.238281 15.59375 -8.09375 L 15.59375 -22.0625 L 20.109375 -22.0625 L 20.109375 -7.734375 C 20.109375 -6.128906 19.726562 -4.722656 18.96875 -3.515625 C 18.21875 -2.304688 17.160156 -1.363281 15.796875 -0.6875 C 14.429688 -0.0195312 12.832031 0.3125 11 0.3125 Z M 11 0.3125 "/></g></g><g transform="translate(43.322432, 110.882128)"><g><path d="M 1.90625 0 L 1.90625 -22.0625 L 6.90625 -22.0625 L 13.90625 -10.875 C 14.226562 -10.34375 14.566406 -9.753906 14.921875 -9.109375 C 15.273438 -8.460938 15.640625 -7.742188 16.015625 -6.953125 C 16.398438 -6.171875 16.78125 -5.316406 17.15625 -4.390625 L 16.671875 -4.109375 C 16.609375 -4.898438 16.550781 -5.753906 16.5 -6.671875 C 16.457031 -7.585938 16.421875 -8.460938 16.390625 -9.296875 C 16.359375 -10.140625 16.34375 -10.84375 16.34375 -11.40625 L 16.34375 -22.0625 L 20.953125 -22.0625 L 20.953125 0 L 15.953125 0 L 9.59375 -10.140625 C 9.164062 -10.835938 8.753906 -11.535156 8.359375 -12.234375 C 7.960938 -12.941406 7.539062 -13.726562 7.09375 -14.59375 C 6.65625 -15.46875 6.144531 -16.484375 5.5625 -17.640625 L 6.1875 -17.75 C 6.25 -16.675781 6.304688 -15.648438 6.359375 -14.671875 C 6.410156 -13.703125 6.453125 -12.828125 6.484375 -12.046875 C 6.515625 -11.273438 6.53125 -10.644531 6.53125 -10.15625 L 6.53125 0 Z M 1.90625 0 "/></g></g><g transform="translate(66.182764, 110.882128)"><g><path d="M 0.59375 0 L 8.1875 -22.0625 L 14.078125 -22.0625 L 21.828125 0 L 16.796875 0 L 13.265625 -10.65625 C 12.835938 -12.039062 12.40625 -13.535156 11.96875 -15.140625 C 11.53125 -16.742188 11.066406 -18.507812 10.578125 -20.4375 L 11.609375 -20.4375 C 11.128906 -18.507812 10.679688 -16.738281 10.265625 -15.125 C 9.847656 -13.507812 9.429688 -12.019531 9.015625 -10.65625 L 5.5625 0 Z M 5.34375 -5.046875 L 5.34375 -8.625 L 17.078125 -8.625 L 17.078125 -5.046875 Z M 5.34375 -5.046875 "/></g></g><g transform="translate(88.598919, 110.882128)"><g><path d="M 1.90625 0 L 1.90625 -22.0625 L 8.796875 -22.0625 L 12.375 -11.90625 C 12.53125 -11.4375 12.703125 -10.832031 12.890625 -10.09375 C 13.085938 -9.351562 13.285156 -8.5625 13.484375 -7.71875 C 13.691406 -6.882812 13.878906 -6.070312 14.046875 -5.28125 C 14.222656 -4.5 14.375 -3.828125 14.5 -3.265625 L 13.546875 -3.265625 C 13.671875 -3.828125 13.816406 -4.492188 13.984375 -5.265625 C 14.160156 -6.046875 14.347656 -6.859375 14.546875 -7.703125 C 14.753906 -8.546875 14.953125 -9.335938 15.140625 -10.078125 C 15.335938 -10.828125 15.515625 -11.4375 15.671875 -11.90625 L 19.1875 -22.0625 L 26.09375 -22.0625 L 26.09375 0 L 21.5625 0 L 21.5625 -10.421875 C 21.5625 -10.910156 21.566406 -11.507812 21.578125 -12.21875 C 21.597656 -12.925781 21.617188 -13.6875 21.640625 -14.5 C 21.671875 -15.320312 21.691406 -16.148438 21.703125 -16.984375 C 21.722656 -17.828125 21.738281 -18.617188 21.75 -19.359375 L 22.09375 -19.359375 C 21.894531 -18.546875 21.679688 -17.707031 21.453125 -16.84375 C 21.222656 -15.988281 20.988281 -15.15625 20.75 -14.34375 C 20.519531 -13.53125 20.300781 -12.785156 20.09375 -12.109375 C 19.894531 -11.429688 19.722656 -10.867188 19.578125 -10.421875 L 15.90625 0 L 12.109375 0 L 8.390625 -10.421875 C 8.234375 -10.867188 8.050781 -11.425781 7.84375 -12.09375 C 7.644531 -12.769531 7.425781 -13.507812 7.1875 -14.3125 C 6.957031 -15.125 6.722656 -15.957031 6.484375 -16.8125 C 6.242188 -17.675781 6.019531 -18.523438 5.8125 -19.359375 L 6.21875 -19.359375 C 6.226562 -18.640625 6.242188 -17.863281 6.265625 -17.03125 C 6.285156 -16.207031 6.304688 -15.378906 6.328125 -14.546875 C 6.347656 -13.722656 6.363281 -12.953125 6.375 -12.234375 C 6.394531 -11.523438 6.40625 -10.921875 6.40625 -10.421875 L 6.40625 0 Z M 1.90625 0 "/></g></g><g transform="translate(116.596904, 110.882128)"><g><path d="M 6.4375 -22.0625 L 6.4375 0 L 1.90625 0 L 1.90625 -22.0625 Z M 6.4375 -22.0625 "/></g></g></g><g fill="#402924" fill-opacity="1"><g transform="translate(21.43929, 192.788635)"><g><path d="M 11.703125 0.3125 C 9.640625 0.3125 7.820312 -0.144531 6.25 -1.0625 C 4.6875 -1.988281 3.46875 -3.296875 2.59375 -4.984375 C 1.71875 -6.679688 1.28125 -8.6875 1.28125 -11 C 1.28125 -13.382812 1.734375 -15.425781 2.640625 -17.125 C 3.554688 -18.820312 4.789062 -20.117188 6.34375 -21.015625 C 7.894531 -21.921875 9.648438 -22.375 11.609375 -22.375 C 12.847656 -22.375 14.007812 -22.191406 15.09375 -21.828125 C 16.175781 -21.472656 17.132812 -20.957031 17.96875 -20.28125 C 18.8125 -19.613281 19.5 -18.820312 20.03125 -17.90625 C 20.570312 -17 20.921875 -15.988281 21.078125 -14.875 L 16.46875 -14.875 C 16.320312 -15.425781 16.109375 -15.910156 15.828125 -16.328125 C 15.546875 -16.753906 15.203125 -17.117188 14.796875 -17.421875 C 14.390625 -17.734375 13.925781 -17.96875 13.40625 -18.125 C 12.882812 -18.28125 12.3125 -18.359375 11.6875 -18.359375 C 10.53125 -18.359375 9.515625 -18.070312 8.640625 -17.5 C 7.765625 -16.925781 7.082031 -16.09375 6.59375 -15 C 6.113281 -13.914062 5.875 -12.597656 5.875 -11.046875 C 5.875 -9.492188 6.113281 -8.171875 6.59375 -7.078125 C 7.070312 -5.984375 7.75 -5.144531 8.625 -4.5625 C 9.507812 -3.988281 10.550781 -3.703125 11.75 -3.703125 C 12.800781 -3.703125 13.710938 -3.894531 14.484375 -4.28125 C 15.253906 -4.675781 15.84375 -5.226562 16.25 -5.9375 C 16.65625 -6.644531 16.859375 -7.476562 16.859375 -8.4375 L 17.84375 -8.3125 L 12.078125 -8.3125 L 12.078125 -11.75 L 21.28125 -11.75 L 21.28125 -8.96875 C 21.28125 -7.0625 20.867188 -5.414062 20.046875 -4.03125 C 19.222656 -2.644531 18.085938 -1.570312 16.640625 -0.8125 C 15.203125 -0.0625 13.554688 0.3125 11.703125 0.3125 Z M 11.703125 0.3125 "/></g></g><g transform="translate(44.092339, 192.788635)"><g><path d="M 1.90625 0 L 1.90625 -22.0625 L 10.578125 -22.0625 C 12.242188 -22.0625 13.664062 -21.765625 14.84375 -21.171875 C 16.03125 -20.578125 16.9375 -19.742188 17.5625 -18.671875 C 18.195312 -17.597656 18.515625 -16.332031 18.515625 -14.875 C 18.515625 -13.414062 18.191406 -12.15625 17.546875 -11.09375 C 16.898438 -10.039062 15.972656 -9.234375 14.765625 -8.671875 C 13.566406 -8.109375 12.117188 -7.828125 10.421875 -7.828125 L 4.609375 -7.828125 L 4.609375 -11.484375 L 9.875 -11.484375 C 10.757812 -11.484375 11.5 -11.613281 12.09375 -11.875 C 12.6875 -12.144531 13.132812 -12.53125 13.4375 -13.03125 C 13.738281 -13.53125 13.890625 -14.144531 13.890625 -14.875 C 13.890625 -15.613281 13.738281 -16.234375 13.4375 -16.734375 C 13.132812 -17.242188 12.6875 -17.632812 12.09375 -17.90625 C 11.5 -18.175781 10.753906 -18.3125 9.859375 -18.3125 L 6.4375 -18.3125 L 6.4375 0 Z M 14.25 0 L 8.9375 -10.03125 L 13.828125 -10.03125 L 19.234375 0 Z M 14.25 0 "/></g></g><g transform="translate(63.961877, 192.788635)"><g><path d="M 0.59375 0 L 8.1875 -22.0625 L 14.078125 -22.0625 L 21.828125 0 L 16.796875 0 L 13.265625 -10.65625 C 12.835938 -12.039062 12.40625 -13.535156 11.96875 -15.140625 C 11.53125 -16.742188 11.066406 -18.507812 10.578125 -20.4375 L 11.609375 -20.4375 C 11.128906 -18.507812 10.679688 -16.738281 10.265625 -15.125 C 9.847656 -13.507812 9.429688 -12.019531 9.015625 -10.65625 L 5.5625 0 Z M 5.34375 -5.046875 L 5.34375 -8.625 L 17.078125 -8.625 L 17.078125 -5.046875 Z M 5.34375 -5.046875 "/></g></g></g><g fill="#402924" fill-opacity="1"><g transform="translate(85.919049, 192.788635)"><g><path d="M 10.0625 0.328125 C 8.269531 0.328125 6.71875 0.0507812 5.40625 -0.5 C 4.09375 -1.050781 3.070312 -1.867188 2.34375 -2.953125 C 1.625 -4.035156 1.25 -5.363281 1.21875 -6.9375 L 5.609375 -6.9375 C 5.648438 -6.1875 5.863281 -5.550781 6.25 -5.03125 C 6.632812 -4.507812 7.148438 -4.117188 7.796875 -3.859375 C 8.453125 -3.597656 9.203125 -3.46875 10.046875 -3.46875 C 10.847656 -3.46875 11.550781 -3.582031 12.15625 -3.8125 C 12.769531 -4.050781 13.242188 -4.382812 13.578125 -4.8125 C 13.910156 -5.238281 14.078125 -5.726562 14.078125 -6.28125 C 14.078125 -6.78125 13.929688 -7.203125 13.640625 -7.546875 C 13.347656 -7.898438 12.914062 -8.195312 12.34375 -8.4375 C 11.78125 -8.6875 11.082031 -8.90625 10.25 -9.09375 L 7.84375 -9.6875 C 5.914062 -10.132812 4.421875 -10.847656 3.359375 -11.828125 C 2.296875 -12.816406 1.765625 -14.113281 1.765625 -15.71875 C 1.765625 -17.050781 2.117188 -18.210938 2.828125 -19.203125 C 3.546875 -20.203125 4.53125 -20.976562 5.78125 -21.53125 C 7.03125 -22.09375 8.460938 -22.375 10.078125 -22.375 C 11.722656 -22.375 13.15625 -22.09375 14.375 -21.53125 C 15.59375 -20.96875 16.539062 -20.179688 17.21875 -19.171875 C 17.90625 -18.171875 18.257812 -17.003906 18.28125 -15.671875 L 13.9375 -15.671875 C 13.851562 -16.585938 13.46875 -17.300781 12.78125 -17.8125 C 12.101562 -18.320312 11.195312 -18.578125 10.0625 -18.578125 C 9.300781 -18.578125 8.640625 -18.46875 8.078125 -18.25 C 7.523438 -18.03125 7.101562 -17.722656 6.8125 -17.328125 C 6.519531 -16.941406 6.375 -16.5 6.375 -16 C 6.375 -15.46875 6.53125 -15.023438 6.84375 -14.671875 C 7.15625 -14.328125 7.582031 -14.039062 8.125 -13.8125 C 8.675781 -13.582031 9.296875 -13.382812 9.984375 -13.21875 L 12 -12.734375 C 12.976562 -12.515625 13.875 -12.222656 14.6875 -11.859375 C 15.5 -11.503906 16.203125 -11.066406 16.796875 -10.546875 C 17.390625 -10.035156 17.84375 -9.429688 18.15625 -8.734375 C 18.46875 -8.035156 18.625 -7.238281 18.625 -6.34375 C 18.625 -4.988281 18.28125 -3.804688 17.59375 -2.796875 C 16.914062 -1.796875 15.941406 -1.023438 14.671875 -0.484375 C 13.398438 0.0546875 11.863281 0.328125 10.0625 0.328125 Z M 10.0625 0.328125 "/></g></g><g transform="translate(105.758975, 192.788635)"><g><path d="M 10.0625 0.328125 C 8.269531 0.328125 6.71875 0.0507812 5.40625 -0.5 C 4.09375 -1.050781 3.070312 -1.867188 2.34375 -2.953125 C 1.625 -4.035156 1.25 -5.363281 1.21875 -6.9375 L 5.609375 -6.9375 C 5.648438 -6.1875 5.863281 -5.550781 6.25 -5.03125 C 6.632812 -4.507812 7.148438 -4.117188 7.796875 -3.859375 C 8.453125 -3.597656 9.203125 -3.46875 10.046875 -3.46875 C 10.847656 -3.46875 11.550781 -3.582031 12.15625 -3.8125 C 12.769531 -4.050781 13.242188 -4.382812 13.578125 -4.8125 C 13.910156 -5.238281 14.078125 -5.726562 14.078125 -6.28125 C 14.078125 -6.78125 13.929688 -7.203125 13.640625 -7.546875 C 13.347656 -7.898438 12.914062 -8.195312 12.34375 -8.4375 C 11.78125 -8.6875 11.082031 -8.90625 10.25 -9.09375 L 7.84375 -9.6875 C 5.914062 -10.132812 4.421875 -10.847656 3.359375 -11.828125 C 2.296875 -12.816406 1.765625 -14.113281 1.765625 -15.71875 C 1.765625 -17.050781 2.117188 -18.210938 2.828125 -19.203125 C 3.546875 -20.203125 4.53125 -20.976562 5.78125 -21.53125 C 7.03125 -22.09375 8.460938 -22.375 10.078125 -22.375 C 11.722656 -22.375 13.15625 -22.09375 14.375 -21.53125 C 15.59375 -20.96875 16.539062 -20.179688 17.21875 -19.171875 C 17.90625 -18.171875 18.257812 -17.003906 18.28125 -15.671875 L 13.9375 -15.671875 C 13.851562 -16.585938 13.46875 -17.300781 12.78125 -17.8125 C 12.101562 -18.320312 11.195312 -18.578125 10.0625 -18.578125 C 9.300781 -18.578125 8.640625 -18.46875 8.078125 -18.25 C 7.523438 -18.03125 7.101562 -17.722656 6.8125 -17.328125 C 6.519531 -16.941406 6.375 -16.5 6.375 -16 C 6.375 -15.46875 6.53125 -15.023438 6.84375 -14.671875 C 7.15625 -14.328125 7.582031 -14.039062 8.125 -13.8125 C 8.675781 -13.582031 9.296875 -13.382812 9.984375 -13.21875 L 12 -12.734375 C 12.976562 -12.515625 13.875 -12.222656 14.6875 -11.859375 C 15.5 -11.503906 16.203125 -11.066406 16.796875 -10.546875 C 17.390625 -10.035156 17.84375 -9.429688 18.15625 -8.734375 C 18.46875 -8.035156 18.625 -7.238281 18.625 -6.34375 C 18.625 -4.988281 18.28125 -3.804688 17.59375 -2.796875 C 16.914062 -1.796875 15.941406 -1.023438 14.671875 -0.484375 C 13.398438 0.0546875 11.863281 0.328125 10.0625 0.328125 Z M 10.0625 0.328125 "/></g></g><g transform="translate(125.598901, 192.788635)"><g><path d="M 8.765625 0 L 8.765625 -8.296875 L 0.59375 -22.0625 L 5.875 -22.0625 L 9.609375 -15.234375 C 9.972656 -14.566406 10.304688 -13.898438 10.609375 -13.234375 C 10.921875 -12.578125 11.234375 -11.8125 11.546875 -10.9375 L 10.5625 -10.9375 C 10.863281 -11.820312 11.160156 -12.597656 11.453125 -13.265625 C 11.742188 -13.929688 12.066406 -14.585938 12.421875 -15.234375 L 16.03125 -22.0625 L 21.296875 -22.0625 L 13.25 -8.296875 L 13.25 0 Z M 8.765625 0 "/></g></g></g><g fill="#402924" fill-opacity="1"><g transform="translate(23.687612, 274.695257)"><g><path d="M 10.0625 0.328125 C 8.269531 0.328125 6.71875 0.0507812 5.40625 -0.5 C 4.09375 -1.050781 3.070312 -1.867188 2.34375 -2.953125 C 1.625 -4.035156 1.25 -5.363281 1.21875 -6.9375 L 5.609375 -6.9375 C 5.648438 -6.1875 5.863281 -5.550781 6.25 -5.03125 C 6.632812 -4.507812 7.148438 -4.117188 7.796875 -3.859375 C 8.453125 -3.597656 9.203125 -3.46875 10.046875 -3.46875 C 10.847656 -3.46875 11.550781 -3.582031 12.15625 -3.8125 C 12.769531 -4.050781 13.242188 -4.382812 13.578125 -4.8125 C 13.910156 -5.238281 14.078125 -5.726562 14.078125 -6.28125 C 14.078125 -6.78125 13.929688 -7.203125 13.640625 -7.546875 C 13.347656 -7.898438 12.914062 -8.195312 12.34375 -8.4375 C 11.78125 -8.6875 11.082031 -8.90625 10.25 -9.09375 L 7.84375 -9.6875 C 5.914062 -10.132812 4.421875 -10.847656 3.359375 -11.828125 C 2.296875 -12.816406 1.765625 -14.113281 1.765625 -15.71875 C 1.765625 -17.050781 2.117188 -18.210938 2.828125 -19.203125 C 3.546875 -20.203125 4.53125 -20.976562 5.78125 -21.53125 C 7.03125 -22.09375 8.460938 -22.375 10.078125 -22.375 C 11.722656 -22.375 13.15625 -22.09375 14.375 -21.53125 C 15.59375 -20.96875 16.539062 -20.179688 17.21875 -19.171875 C 17.90625 -18.171875 18.257812 -17.003906 18.28125 -15.671875 L 13.9375 -15.671875 C 13.851562 -16.585938 13.46875 -17.300781 12.78125 -17.8125 C 12.101562 -18.320312 11.195312 -18.578125 10.0625 -18.578125 C 9.300781 -18.578125 8.640625 -18.46875 8.078125 -18.25 C 7.523438 -18.03125 7.101562 -17.722656 6.8125 -17.328125 C 6.519531 -16.941406 6.375 -16.5 6.375 -16 C 6.375 -15.46875 6.53125 -15.023438 6.84375 -14.671875 C 7.15625 -14.328125 7.582031 -14.039062 8.125 -13.8125 C 8.675781 -13.582031 9.296875 -13.382812 9.984375 -13.21875 L 12 -12.734375 C 12.976562 -12.515625 13.875 -12.222656 14.6875 -11.859375 C 15.5 -11.503906 16.203125 -11.066406 16.796875 -10.546875 C 17.390625 -10.035156 17.84375 -9.429688 18.15625 -8.734375 C 18.46875 -8.035156 18.625 -7.238281 18.625 -6.34375 C 18.625 -4.988281 18.28125 -3.804688 17.59375 -2.796875 C 16.914062 -1.796875 15.941406 -1.023438 14.671875 -0.484375 C 13.398438 0.0546875 11.863281 0.328125 10.0625 0.328125 Z M 10.0625 0.328125 "/></g></g><g transform="translate(43.527538, 274.695257)"><g><path d="M 6.515625 0 L 0.59375 -22.0625 L 5.515625 -22.0625 L 8.078125 -11.203125 C 8.285156 -10.273438 8.476562 -9.3125 8.65625 -8.3125 C 8.832031 -7.3125 9.003906 -6.304688 9.171875 -5.296875 C 9.335938 -4.285156 9.5 -3.304688 9.65625 -2.359375 L 8.84375 -2.359375 C 9.019531 -3.304688 9.195312 -4.285156 9.375 -5.296875 C 9.550781 -6.304688 9.734375 -7.3125 9.921875 -8.3125 C 10.117188 -9.3125 10.328125 -10.273438 10.546875 -11.203125 L 13.25 -22.0625 L 17.953125 -22.0625 L 20.625 -11.203125 C 20.851562 -10.273438 21.0625 -9.3125 21.25 -8.3125 C 21.445312 -7.3125 21.632812 -6.304688 21.8125 -5.296875 C 21.988281 -4.285156 22.164062 -3.304688 22.34375 -2.359375 L 21.5 -2.359375 C 21.664062 -3.304688 21.832031 -4.285156 22 -5.296875 C 22.164062 -6.304688 22.34375 -7.3125 22.53125 -8.3125 C 22.71875 -9.3125 22.90625 -10.273438 23.09375 -11.203125 L 25.65625 -22.0625 L 30.59375 -22.0625 L 24.65625 0 L 19.515625 0 L 16.546875 -11.453125 C 16.242188 -12.617188 15.984375 -13.890625 15.765625 -15.265625 C 15.546875 -16.648438 15.296875 -18.09375 15.015625 -19.59375 L 16.15625 -19.59375 C 15.863281 -18.125 15.613281 -16.707031 15.40625 -15.34375 C 15.207031 -13.976562 14.953125 -12.679688 14.640625 -11.453125 L 11.671875 0 Z M 6.515625 0 "/></g></g><g transform="translate(74.708794, 274.695257)"><g><path d="M 1.90625 0 L 1.90625 -22.0625 L 16.921875 -22.0625 L 16.921875 -18.28125 L 6.4375 -18.28125 L 6.4375 -13 L 16.125 -13 L 16.125 -9.28125 L 6.4375 -9.28125 L 6.4375 -3.796875 L 16.9375 -3.796875 L 16.9375 0 Z M 1.90625 0 "/></g></g><g transform="translate(93.127352, 274.695257)"><g><path d="M 1.90625 0 L 1.90625 -22.0625 L 16.921875 -22.0625 L 16.921875 -18.28125 L 6.4375 -18.28125 L 6.4375 -13 L 16.125 -13 L 16.125 -9.28125 L 6.4375 -9.28125 L 6.4375 -3.796875 L 16.9375 -3.796875 L 16.9375 0 Z M 1.90625 0 "/></g></g><g transform="translate(111.54591, 274.695257)"><g><path d="M 1 -18.28125 L 1 -22.0625 L 19.015625 -22.0625 L 19.015625 -18.28125 L 12.296875 -18.28125 L 12.296875 0 L 7.765625 0 L 7.765625 -18.28125 Z M 1 -18.28125 "/></g></g></g><g fill="#402924" fill-opacity="1"><g transform="translate(24.305265, 356.34942)"><g><path d="M 1.90625 0 L 1.90625 -22.0625 L 10.6875 -22.0625 C 12.300781 -22.0625 13.648438 -21.816406 14.734375 -21.328125 C 15.816406 -20.847656 16.628906 -20.179688 17.171875 -19.328125 C 17.722656 -18.472656 18 -17.492188 18 -16.390625 C 18 -15.535156 17.828125 -14.78125 17.484375 -14.125 C 17.148438 -13.476562 16.679688 -12.945312 16.078125 -12.53125 C 15.484375 -12.113281 14.800781 -11.816406 14.03125 -11.640625 L 14.03125 -11.453125 C 14.882812 -11.410156 15.675781 -11.164062 16.40625 -10.71875 C 17.132812 -10.28125 17.722656 -9.671875 18.171875 -8.890625 C 18.617188 -8.117188 18.84375 -7.191406 18.84375 -6.109375 C 18.84375 -4.941406 18.554688 -3.894531 17.984375 -2.96875 C 17.421875 -2.039062 16.570312 -1.3125 15.4375 -0.78125 C 14.3125 -0.257812 12.910156 0 11.234375 0 Z M 6.421875 -3.6875 L 10.40625 -3.6875 C 11.695312 -3.6875 12.648438 -3.941406 13.265625 -4.453125 C 13.890625 -4.960938 14.203125 -5.644531 14.203125 -6.5 C 14.203125 -7.125 14.050781 -7.671875 13.75 -8.140625 C 13.457031 -8.617188 13.035156 -8.988281 12.484375 -9.25 C 11.929688 -9.519531 11.273438 -9.65625 10.515625 -9.65625 L 6.421875 -9.65625 Z M 6.421875 -12.828125 L 10.09375 -12.828125 C 10.75 -12.828125 11.328125 -12.9375 11.828125 -13.15625 C 12.335938 -13.382812 12.734375 -13.710938 13.015625 -14.140625 C 13.304688 -14.578125 13.453125 -15.085938 13.453125 -15.671875 C 13.453125 -16.484375 13.164062 -17.140625 12.59375 -17.640625 C 12.019531 -18.148438 11.207031 -18.40625 10.15625 -18.40625 L 6.421875 -18.40625 Z M 6.421875 -12.828125 "/></g></g><g transform="translate(44.248832, 356.34942)"><g><path d="M 6.4375 -22.0625 L 6.4375 0 L 1.90625 0 L 1.90625 -22.0625 Z M 6.4375 -22.0625 "/></g></g><g transform="translate(52.614173, 356.34942)"><g><path d="M 1 -18.28125 L 1 -22.0625 L 19.015625 -22.0625 L 19.015625 -18.28125 L 12.296875 -18.28125 L 12.296875 0 L 7.765625 0 L 7.765625 -18.28125 Z M 1 -18.28125 "/></g></g><g transform="translate(72.646576, 356.34942)"><g><path d="M 1 -18.28125 L 1 -22.0625 L 19.015625 -22.0625 L 19.015625 -18.28125 L 12.296875 -18.28125 L 12.296875 0 L 7.765625 0 L 7.765625 -18.28125 Z M 1 -18.28125 "/></g></g><g transform="translate(92.678979, 356.34942)"><g><path d="M 1.90625 0 L 1.90625 -22.0625 L 16.921875 -22.0625 L 16.921875 -18.28125 L 6.4375 -18.28125 L 6.4375 -13 L 16.125 -13 L 16.125 -9.28125 L 6.4375 -9.28125 L 6.4375 -3.796875 L 16.9375 -3.796875 L 16.9375 0 Z M 1.90625 0 "/></g></g><g transform="translate(111.097537, 356.34942)"><g><path d="M 1.90625 0 L 1.90625 -22.0625 L 10.578125 -22.0625 C 12.242188 -22.0625 13.664062 -21.765625 14.84375 -21.171875 C 16.03125 -20.578125 16.9375 -19.742188 17.5625 -18.671875 C 18.195312 -17.597656 18.515625 -16.332031 18.515625 -14.875 C 18.515625 -13.414062 18.191406 -12.15625 17.546875 -11.09375 C 16.898438 -10.039062 15.972656 -9.234375 14.765625 -8.671875 C 13.566406 -8.109375 12.117188 -7.828125 10.421875 -7.828125 L 4.609375 -7.828125 L 4.609375 -11.484375 L 9.875 -11.484375 C 10.757812 -11.484375 11.5 -11.613281 12.09375 -11.875 C 12.6875 -12.144531 13.132812 -12.53125 13.4375 -13.03125 C 13.738281 -13.53125 13.890625 -14.144531 13.890625 -14.875 C 13.890625 -15.613281 13.738281 -16.234375 13.4375 -16.734375 C 13.132812 -17.242188 12.6875 -17.632812 12.09375 -17.90625 C 11.5 -18.175781 10.753906 -18.3125 9.859375 -18.3125 L 6.4375 -18.3125 L 6.4375 0 Z M 14.25 0 L 8.9375 -10.03125 L 13.828125 -10.03125 L 19.234375 0 Z M 14.25 0 "/></g></g></g><g fill="#402924" fill-opacity="1"><g transform="translate(24.550585, 438.003633)"><g><path d="M 11.578125 0.3125 C 9.617188 0.3125 7.859375 -0.132812 6.296875 -1.03125 C 4.742188 -1.9375 3.519531 -3.234375 2.625 -4.921875 C 1.726562 -6.609375 1.28125 -8.640625 1.28125 -11.015625 C 1.28125 -13.398438 1.726562 -15.441406 2.625 -17.140625 C 3.53125 -18.835938 4.757812 -20.132812 6.3125 -21.03125 C 7.875 -21.925781 9.628906 -22.375 11.578125 -22.375 C 12.835938 -22.375 14.015625 -22.195312 15.109375 -21.84375 C 16.203125 -21.488281 17.164062 -20.96875 18 -20.28125 C 18.84375 -19.601562 19.53125 -18.773438 20.0625 -17.796875 C 20.601562 -16.816406 20.957031 -15.707031 21.125 -14.46875 L 16.5625 -14.46875 C 16.445312 -15.082031 16.242188 -15.628906 15.953125 -16.109375 C 15.671875 -16.597656 15.316406 -17.007812 14.890625 -17.34375 C 14.472656 -17.675781 13.988281 -17.925781 13.4375 -18.09375 C 12.894531 -18.269531 12.304688 -18.359375 11.671875 -18.359375 C 10.503906 -18.359375 9.484375 -18.066406 8.609375 -17.484375 C 7.734375 -16.898438 7.054688 -16.0625 6.578125 -14.96875 C 6.109375 -13.882812 5.875 -12.566406 5.875 -11.015625 C 5.875 -9.441406 6.113281 -8.109375 6.59375 -7.015625 C 7.070312 -5.929688 7.742188 -5.109375 8.609375 -4.546875 C 9.484375 -3.984375 10.503906 -3.703125 11.671875 -3.703125 C 12.296875 -3.703125 12.878906 -3.789062 13.421875 -3.96875 C 13.972656 -4.144531 14.460938 -4.398438 14.890625 -4.734375 C 15.316406 -5.066406 15.671875 -5.472656 15.953125 -5.953125 C 16.242188 -6.429688 16.453125 -6.976562 16.578125 -7.59375 L 21.140625 -7.59375 C 21.003906 -6.519531 20.6875 -5.507812 20.1875 -4.5625 C 19.6875 -3.613281 19.023438 -2.769531 18.203125 -2.03125 C 17.378906 -1.300781 16.410156 -0.726562 15.296875 -0.3125 C 14.191406 0.101562 12.953125 0.3125 11.578125 0.3125 Z M 11.578125 0.3125 "/></g></g><g transform="translate(46.89271, 438.003633)"><g><path d="M 1.90625 0 L 1.90625 -22.0625 L 10.578125 -22.0625 C 12.242188 -22.0625 13.664062 -21.765625 14.84375 -21.171875 C 16.03125 -20.578125 16.9375 -19.742188 17.5625 -18.671875 C 18.195312 -17.597656 18.515625 -16.332031 18.515625 -14.875 C 18.515625 -13.414062 18.191406 -12.15625 17.546875 -11.09375 C 16.898438 -10.039062 15.972656 -9.234375 14.765625 -8.671875 C 13.566406 -8.109375 12.117188 -7.828125 10.421875 -7.828125 L 4.609375 -7.828125 L 4.609375 -11.484375 L 9.875 -11.484375 C 10.757812 -11.484375 11.5 -11.613281 12.09375 -11.875 C 12.6875 -12.144531 13.132812 -12.53125 13.4375 -13.03125 C 13.738281 -13.53125 13.890625 -14.144531 13.890625 -14.875 C 13.890625 -15.613281 13.738281 -16.234375 13.4375 -16.734375 C 13.132812 -17.242188 12.6875 -17.632812 12.09375 -17.90625 C 11.5 -18.175781 10.753906 -18.3125 9.859375 -18.3125 L 6.4375 -18.3125 L 6.4375 0 Z M 14.25 0 L 8.9375 -10.03125 L 13.828125 -10.03125 L 19.234375 0 Z M 14.25 0 "/></g></g><g transform="translate(66.762248, 438.003633)"><g><path d="M 1.90625 0 L 1.90625 -22.0625 L 16.921875 -22.0625 L 16.921875 -18.28125 L 6.4375 -18.28125 L 6.4375 -13 L 16.125 -13 L 16.125 -9.28125 L 6.4375 -9.28125 L 6.4375 -3.796875 L 16.9375 -3.796875 L 16.9375 0 Z M 1.90625 0 "/></g></g><g transform="translate(85.180806, 438.003633)"><g><path d="M 0.59375 0 L 8.1875 -22.0625 L 14.078125 -22.0625 L 21.828125 0 L 16.796875 0 L 13.265625 -10.65625 C 12.835938 -12.039062 12.40625 -13.535156 11.96875 -15.140625 C 11.53125 -16.742188 11.066406 -18.507812 10.578125 -20.4375 L 11.609375 -20.4375 C 11.128906 -18.507812 10.679688 -16.738281 10.265625 -15.125 C 9.847656 -13.507812 9.429688 -12.019531 9.015625 -10.65625 L 5.5625 0 Z M 5.34375 -5.046875 L 5.34375 -8.625 L 17.078125 -8.625 L 17.078125 -5.046875 Z M 5.34375 -5.046875 "/></g></g><g transform="translate(107.596961, 438.003633)"><g><path d="M 1.90625 0 L 1.90625 -22.0625 L 8.796875 -22.0625 L 12.375 -11.90625 C 12.53125 -11.4375 12.703125 -10.832031 12.890625 -10.09375 C 13.085938 -9.351562 13.285156 -8.5625 13.484375 -7.71875 C 13.691406 -6.882812 13.878906 -6.070312 14.046875 -5.28125 C 14.222656 -4.5 14.375 -3.828125 14.5 -3.265625 L 13.546875 -3.265625 C 13.671875 -3.828125 13.816406 -4.492188 13.984375 -5.265625 C 14.160156 -6.046875 14.347656 -6.859375 14.546875 -7.703125 C 14.753906 -8.546875 14.953125 -9.335938 15.140625 -10.078125 C 15.335938 -10.828125 15.515625 -11.4375 15.671875 -11.90625 L 19.1875 -22.0625 L 26.09375 -22.0625 L 26.09375 0 L 21.5625 0 L 21.5625 -10.421875 C 21.5625 -10.910156 21.566406 -11.507812 21.578125 -12.21875 C 21.597656 -12.925781 21.617188 -13.6875 21.640625 -14.5 C 21.671875 -15.320312 21.691406 -16.148438 21.703125 -16.984375 C 21.722656 -17.828125 21.738281 -18.617188 21.75 -19.359375 L 22.09375 -19.359375 C 21.894531 -18.546875 21.679688 -17.707031 21.453125 -16.84375 C 21.222656 -15.988281 20.988281 -15.15625 20.75 -14.34375 C 20.519531 -13.53125 20.300781 -12.785156 20.09375 -12.109375 C 19.894531 -11.429688 19.722656 -10.867188 19.578125 -10.421875 L 15.90625 0 L 12.109375 0 L 8.390625 -10.421875 C 8.234375 -10.867188 8.050781 -11.425781 7.84375 -12.09375 C 7.644531 -12.769531 7.425781 -13.507812 7.1875 -14.3125 C 6.957031 -15.125 6.722656 -15.957031 6.484375 -16.8125 C 6.242188 -17.675781 6.019531 -18.523438 5.8125 -19.359375 L 6.21875 -19.359375 C 6.226562 -18.640625 6.242188 -17.863281 6.265625 -17.03125 C 6.285156 -16.207031 6.304688 -15.378906 6.328125 -14.546875 C 6.347656 -13.722656 6.363281 -12.953125 6.375 -12.234375 C 6.394531 -11.523438 6.40625 -10.921875 6.40625 -10.421875 L 6.40625 0 Z M 1.90625 0 "/></g></g><g transform="translate(135.594946, 438.003633)"><g><path d="M 8.765625 0 L 8.765625 -8.296875 L 0.59375 -22.0625 L 5.875 -22.0625 L 9.609375 -15.234375 C 9.972656 -14.566406 10.304688 -13.898438 10.609375 -13.234375 C 10.921875 -12.578125 11.234375 -11.8125 11.546875 -10.9375 L 10.5625 -10.9375 C 10.863281 -11.820312 11.160156 -12.597656 11.453125 -13.265625 C 11.742188 -13.929688 12.066406 -14.585938 12.421875 -15.234375 L 16.03125 -22.0625 L 21.296875 -22.0625 L 13.25 -8.296875 L 13.25 0 Z M 8.765625 0 "/></g></g></g><g fill="#402924" fill-opacity="1"><g transform="translate(27.194055, 519.657741)"><g><path d="M 5.25 -4.90625 L 5.25 -9.359375 C 5.707031 -10.128906 6.160156 -10.851562 6.609375 -11.53125 C 7.066406 -12.207031 7.550781 -12.878906 8.0625 -13.546875 C 8.582031 -14.222656 9.160156 -14.945312 9.796875 -15.71875 L 15.203125 -22.0625 L 20.734375 -22.0625 L 11.421875 -11.296875 L 11.046875 -11.40625 Z M 1.90625 0 L 1.90625 -22.0625 L 6.4375 -22.0625 L 6.4375 -16.015625 L 6.375 -10.40625 L 6.4375 -8.203125 L 6.4375 0 Z M 15.640625 0 L 9.078125 -9.96875 L 11.90625 -13.359375 L 20.953125 0 Z M 15.640625 0 "/></g></g><g transform="translate(48.766273, 519.657741)"><g><path d="M 1.90625 0 L 1.90625 -22.0625 L 10.578125 -22.0625 C 12.242188 -22.0625 13.664062 -21.765625 14.84375 -21.171875 C 16.03125 -20.578125 16.9375 -19.742188 17.5625 -18.671875 C 18.195312 -17.597656 18.515625 -16.332031 18.515625 -14.875 C 18.515625 -13.414062 18.191406 -12.15625 17.546875 -11.09375 C 16.898438 -10.039062 15.972656 -9.234375 14.765625 -8.671875 C 13.566406 -8.109375 12.117188 -7.828125 10.421875 -7.828125 L 4.609375 -7.828125 L 4.609375 -11.484375 L 9.875 -11.484375 C 10.757812 -11.484375 11.5 -11.613281 12.09375 -11.875 C 12.6875 -12.144531 13.132812 -12.53125 13.4375 -13.03125 C 13.738281 -13.53125 13.890625 -14.144531 13.890625 -14.875 C 13.890625 -15.613281 13.738281 -16.234375 13.4375 -16.734375 C 13.132812 -17.242188 12.6875 -17.632812 12.09375 -17.90625 C 11.5 -18.175781 10.753906 -18.3125 9.859375 -18.3125 L 6.4375 -18.3125 L 6.4375 0 Z M 14.25 0 L 8.9375 -10.03125 L 13.828125 -10.03125 L 19.234375 0 Z M 14.25 0 "/></g></g></g><g fill="#402924" fill-opacity="1"><g transform="translate(67.747456, 519.657741)"><g><path d="M 8.765625 0 L 8.765625 -8.296875 L 0.59375 -22.0625 L 5.875 -22.0625 L 9.609375 -15.234375 C 9.972656 -14.566406 10.304688 -13.898438 10.609375 -13.234375 C 10.921875 -12.578125 11.234375 -11.8125 11.546875 -10.9375 L 10.5625 -10.9375 C 10.863281 -11.820312 11.160156 -12.597656 11.453125 -13.265625 C 11.742188 -13.929688 12.066406 -14.585938 12.421875 -15.234375 L 16.03125 -22.0625 L 21.296875 -22.0625 L 13.25 -8.296875 L 13.25 0 Z M 8.765625 0 "/></g></g><g transform="translate(89.630598, 519.657741)"><g><path d="M 10.0625 0.328125 C 8.269531 0.328125 6.71875 0.0507812 5.40625 -0.5 C 4.09375 -1.050781 3.070312 -1.867188 2.34375 -2.953125 C 1.625 -4.035156 1.25 -5.363281 1.21875 -6.9375 L 5.609375 -6.9375 C 5.648438 -6.1875 5.863281 -5.550781 6.25 -5.03125 C 6.632812 -4.507812 7.148438 -4.117188 7.796875 -3.859375 C 8.453125 -3.597656 9.203125 -3.46875 10.046875 -3.46875 C 10.847656 -3.46875 11.550781 -3.582031 12.15625 -3.8125 C 12.769531 -4.050781 13.242188 -4.382812 13.578125 -4.8125 C 13.910156 -5.238281 14.078125 -5.726562 14.078125 -6.28125 C 14.078125 -6.78125 13.929688 -7.203125 13.640625 -7.546875 C 13.347656 -7.898438 12.914062 -8.195312 12.34375 -8.4375 C 11.78125 -8.6875 11.082031 -8.90625 10.25 -9.09375 L 7.84375 -9.6875 C 5.914062 -10.132812 4.421875 -10.847656 3.359375 -11.828125 C 2.296875 -12.816406 1.765625 -14.113281 1.765625 -15.71875 C 1.765625 -17.050781 2.117188 -18.210938 2.828125 -19.203125 C 3.546875 -20.203125 4.53125 -20.976562 5.78125 -21.53125 C 7.03125 -22.09375 8.460938 -22.375 10.078125 -22.375 C 11.722656 -22.375 13.15625 -22.09375 14.375 -21.53125 C 15.59375 -20.96875 16.539062 -20.179688 17.21875 -19.171875 C 17.90625 -18.171875 18.257812 -17.003906 18.28125 -15.671875 L 13.9375 -15.671875 C 13.851562 -16.585938 13.46875 -17.300781 12.78125 -17.8125 C 12.101562 -18.320312 11.195312 -18.578125 10.0625 -18.578125 C 9.300781 -18.578125 8.640625 -18.46875 8.078125 -18.25 C 7.523438 -18.03125 7.101562 -17.722656 6.8125 -17.328125 C 6.519531 -16.941406 6.375 -16.5 6.375 -16 C 6.375 -15.46875 6.53125 -15.023438 6.84375 -14.671875 C 7.15625 -14.328125 7.582031 -14.039062 8.125 -13.8125 C 8.675781 -13.582031 9.296875 -13.382812 9.984375 -13.21875 L 12 -12.734375 C 12.976562 -12.515625 13.875 -12.222656 14.6875 -11.859375 C 15.5 -11.503906 16.203125 -11.066406 16.796875 -10.546875 C 17.390625 -10.035156 17.84375 -9.429688 18.15625 -8.734375 C 18.46875 -8.035156 18.625 -7.238281 18.625 -6.34375 C 18.625 -4.988281 18.28125 -3.804688 17.59375 -2.796875 C 16.914062 -1.796875 15.941406 -1.023438 14.671875 -0.484375 C 13.398438 0.0546875 11.863281 0.328125 10.0625 0.328125 Z M 10.0625 0.328125 "/></g></g></g><g fill="#402924" fill-opacity="1"><g transform="translate(109.470524, 519.657741)"><g><path d="M 2.140625 -13.09375 L 3.390625 -22.0625 L 7.796875 -22.0625 L 5.171875 -13.09375 Z M 2.140625 -13.09375 "/></g></g></g><g fill="#402924" fill-opacity="1"><g transform="translate(118.324461, 519.657741)"><g/></g><g transform="translate(125.35727, 519.657741)"><g><path d="M 1.90625 0 L 1.90625 -22.0625 L 10.578125 -22.0625 C 12.242188 -22.0625 13.664062 -21.765625 14.84375 -21.171875 C 16.03125 -20.578125 16.9375 -19.742188 17.5625 -18.671875 C 18.195312 -17.597656 18.515625 -16.332031 18.515625 -14.875 C 18.515625 -13.414062 18.191406 -12.15625 17.546875 -11.09375 C 16.898438 -10.039062 15.972656 -9.234375 14.765625 -8.671875 C 13.566406 -8.109375 12.117188 -7.828125 10.421875 -7.828125 L 4.609375 -7.828125 L 4.609375 -11.484375 L 9.875 -11.484375 C 10.757812 -11.484375 11.5 -11.613281 12.09375 -11.875 C 12.6875 -12.144531 13.132812 -12.53125 13.4375 -13.03125 C 13.738281 -13.53125 13.890625 -14.144531 13.890625 -14.875 C 13.890625 -15.613281 13.738281 -16.234375 13.4375 -16.734375 C 13.132812 -17.242188 12.6875 -17.632812 12.09375 -17.90625 C 11.5 -18.175781 10.753906 -18.3125 9.859375 -18.3125 L 6.4375 -18.3125 L 6.4375 0 Z M 14.25 0 L 8.9375 -10.03125 L 13.828125 -10.03125 L 19.234375 0 Z M 14.25 0 "/></g></g><g transform="translate(145.226808, 519.657741)"><g><path d="M 0.59375 0 L 8.1875 -22.0625 L 14.078125 -22.0625 L 21.828125 0 L 16.796875 0 L 13.265625 -10.65625 C 12.835938 -12.039062 12.40625 -13.535156 11.96875 -15.140625 C 11.53125 -16.742188 11.066406 -18.507812 10.578125 -20.4375 L 11.609375 -20.4375 C 11.128906 -18.507812 10.679688 -16.738281 10.265625 -15.125 C 9.847656 -13.507812 9.429688 -12.019531 9.015625 -10.65625 L 5.5625 0 Z M 5.34375 -5.046875 L 5.34375 -8.625 L 17.078125 -8.625 L 17.078125 -5.046875 Z M 5.34375 -5.046875 "/></g></g></g><g fill="#402924" fill-opacity="1"><g transform="translate(164.889062, 519.657741)"><g><path d="M 1 -18.28125 L 1 -22.0625 L 19.015625 -22.0625 L 19.015625 -18.28125 L 12.296875 -18.28125 L 12.296875 0 L 7.765625 0 L 7.765625 -18.28125 Z M 1 -18.28125 "/></g></g><g transform="translate(184.921465, 519.657741)"><g><path d="M 6.4375 -22.0625 L 6.4375 0 L 1.90625 0 L 1.90625 -22.0625 Z M 6.4375 -22.0625 "/></g></g><g transform="translate(193.286807, 519.657741)"><g><path d="M 1.90625 0 L 1.90625 -22.0625 L 6.90625 -22.0625 L 13.90625 -10.875 C 14.226562 -10.34375 14.566406 -9.753906 14.921875 -9.109375 C 15.273438 -8.460938 15.640625 -7.742188 16.015625 -6.953125 C 16.398438 -6.171875 16.78125 -5.316406 17.15625 -4.390625 L 16.671875 -4.109375 C 16.609375 -4.898438 16.550781 -5.753906 16.5 -6.671875 C 16.457031 -7.585938 16.421875 -8.460938 16.390625 -9.296875 C 16.359375 -10.140625 16.34375 -10.84375 16.34375 -11.40625 L 16.34375 -22.0625 L 20.953125 -22.0625 L 20.953125 0 L 15.953125 0 L 9.59375 -10.140625 C 9.164062 -10.835938 8.753906 -11.535156 8.359375 -12.234375 C 7.960938 -12.941406 7.539062 -13.726562 7.09375 -14.59375 C 6.65625 -15.46875 6.144531 -16.484375 5.5625 -17.640625 L 6.1875 -17.75 C 6.25 -16.675781 6.304688 -15.648438 6.359375 -14.671875 C 6.410156 -13.703125 6.453125 -12.828125 6.484375 -12.046875 C 6.515625 -11.273438 6.53125 -10.644531 6.53125 -10.15625 L 6.53125 0 Z M 1.90625 0 "/></g></g><g transform="translate(216.147139, 519.657741)"><g><path d="M 11.703125 0.3125 C 9.640625 0.3125 7.820312 -0.144531 6.25 -1.0625 C 4.6875 -1.988281 3.46875 -3.296875 2.59375 -4.984375 C 1.71875 -6.679688 1.28125 -8.6875 1.28125 -11 C 1.28125 -13.382812 1.734375 -15.425781 2.640625 -17.125 C 3.554688 -18.820312 4.789062 -20.117188 6.34375 -21.015625 C 7.894531 -21.921875 9.648438 -22.375 11.609375 -22.375 C 12.847656 -22.375 14.007812 -22.191406 15.09375 -21.828125 C 16.175781 -21.472656 17.132812 -20.957031 17.96875 -20.28125 C 18.8125 -19.613281 19.5 -18.820312 20.03125 -17.90625 C 20.570312 -17 20.921875 -15.988281 21.078125 -14.875 L 16.46875 -14.875 C 16.320312 -15.425781 16.109375 -15.910156 15.828125 -16.328125 C 15.546875 -16.753906 15.203125 -17.117188 14.796875 -17.421875 C 14.390625 -17.734375 13.925781 -17.96875 13.40625 -18.125 C 12.882812 -18.28125 12.3125 -18.359375 11.6875 -18.359375 C 10.53125 -18.359375 9.515625 -18.070312 8.640625 -17.5 C 7.765625 -16.925781 7.082031 -16.09375 6.59375 -15 C 6.113281 -13.914062 5.875 -12.597656 5.875 -11.046875 C 5.875 -9.492188 6.113281 -8.171875 6.59375 -7.078125 C 7.070312 -5.984375 7.75 -5.144531 8.625 -4.5625 C 9.507812 -3.988281 10.550781 -3.703125 11.75 -3.703125 C 12.800781 -3.703125 13.710938 -3.894531 14.484375 -4.28125 C 15.253906 -4.675781 15.84375 -5.226562 16.25 -5.9375 C 16.65625 -6.644531 16.859375 -7.476562 16.859375 -8.4375 L 17.84375 -8.3125 L 12.078125 -8.3125 L 12.078125 -11.75 L 21.28125 -11.75 L 21.28125 -8.96875 C 21.28125 -7.0625 20.867188 -5.414062 20.046875 -4.03125 C 19.222656 -2.644531 18.085938 -1.570312 16.640625 -0.8125 C 15.203125 -0.0625 13.554688 0.3125 11.703125 0.3125 Z M 11.703125 0.3125 "/></g></g></g><g fill="#b2ab2b" fill-opacity="1"><g transform="translate(258.810497, 516.950421)"><g><path d="M 1.671875 -6.390625 C 1.671875 -7.566406 1.785156 -8.785156 2.015625 -10.046875 C 2.242188 -11.316406 2.554688 -12.53125 2.953125 -13.6875 C 3.359375 -14.84375 3.820312 -15.84375 4.34375 -16.6875 L 7.296875 -16.6875 C 6.804688 -15.613281 6.378906 -14.484375 6.015625 -13.296875 C 5.648438 -12.117188 5.367188 -10.941406 5.171875 -9.765625 C 4.984375 -8.585938 4.890625 -7.460938 4.890625 -6.390625 C 4.890625 -5.441406 4.972656 -4.492188 5.140625 -3.546875 C 5.304688 -2.609375 5.566406 -1.609375 5.921875 -0.546875 C 6.273438 0.515625 6.734375 1.691406 7.296875 2.984375 L 4.34375 2.984375 C 3.46875 1.523438 2.800781 0.00390625 2.34375 -1.578125 C 1.894531 -3.171875 1.671875 -4.773438 1.671875 -6.390625 Z M 1.671875 -6.390625 "/></g></g></g><g fill="#b2ab2b" fill-opacity="1"><g transform="translate(267.070082, 516.950421)"><g><path d="M 4.453125 -6.703125 L 4.453125 0 L 1.296875 0 L 1.296875 -11.671875 L 4.296875 -11.671875 L 4.34375 -8.734375 L 4.078125 -8.734375 C 4.398438 -9.722656 4.878906 -10.488281 5.515625 -11.03125 C 6.148438 -11.570312 6.96875 -11.84375 7.96875 -11.84375 C 8.78125 -11.84375 9.488281 -11.664062 10.09375 -11.3125 C 10.707031 -10.957031 11.175781 -10.445312 11.5 -9.78125 C 11.832031 -9.125 12 -8.332031 12 -7.40625 L 12 0 L 8.84375 0 L 8.84375 -6.84375 C 8.84375 -7.582031 8.65625 -8.15625 8.28125 -8.5625 C 7.914062 -8.976562 7.394531 -9.1875 6.71875 -9.1875 C 6.28125 -9.1875 5.890625 -9.085938 5.546875 -8.890625 C 5.203125 -8.703125 4.929688 -8.421875 4.734375 -8.046875 C 4.546875 -7.679688 4.453125 -7.234375 4.453125 -6.703125 Z M 4.453125 -6.703125 "/></g></g><g transform="translate(280.374254, 516.950421)"><g><path d="M 6.59375 0.234375 C 5.394531 0.234375 4.363281 -0.0078125 3.5 -0.5 C 2.632812 -1 1.96875 -1.695312 1.5 -2.59375 C 1.03125 -3.5 0.796875 -4.5625 0.796875 -5.78125 C 0.796875 -6.988281 1.03125 -8.046875 1.5 -8.953125 C 1.96875 -9.859375 2.625 -10.566406 3.46875 -11.078125 C 4.3125 -11.585938 5.300781 -11.84375 6.4375 -11.84375 C 7.21875 -11.84375 7.941406 -11.710938 8.609375 -11.453125 C 9.285156 -11.203125 9.875 -10.828125 10.375 -10.328125 C 10.882812 -9.835938 11.273438 -9.21875 11.546875 -8.46875 C 11.828125 -7.726562 11.96875 -6.875 11.96875 -5.90625 L 11.96875 -5.015625 L 2.0625 -5.015625 L 2.0625 -7.015625 L 10.4375 -7.015625 L 8.96875 -6.5 C 8.96875 -7.101562 8.867188 -7.625 8.671875 -8.0625 C 8.484375 -8.507812 8.203125 -8.851562 7.828125 -9.09375 C 7.460938 -9.34375 7.007812 -9.46875 6.46875 -9.46875 C 5.925781 -9.46875 5.460938 -9.34375 5.078125 -9.09375 C 4.703125 -8.84375 4.410156 -8.503906 4.203125 -8.078125 C 4.003906 -7.648438 3.90625 -7.15625 3.90625 -6.59375 L 3.90625 -5.203125 C 3.90625 -4.546875 4.019531 -3.988281 4.25 -3.53125 C 4.476562 -3.070312 4.796875 -2.722656 5.203125 -2.484375 C 5.617188 -2.253906 6.101562 -2.140625 6.65625 -2.140625 C 7.03125 -2.140625 7.367188 -2.191406 7.671875 -2.296875 C 7.972656 -2.410156 8.234375 -2.570312 8.453125 -2.78125 C 8.671875 -2.988281 8.835938 -3.242188 8.953125 -3.546875 L 11.8125 -3.125 C 11.625 -2.445312 11.289062 -1.859375 10.8125 -1.359375 C 10.34375 -0.859375 9.75 -0.46875 9.03125 -0.1875 C 8.320312 0.09375 7.507812 0.234375 6.59375 0.234375 Z M 6.59375 0.234375 "/></g></g></g><g fill="#b2ab2b" fill-opacity="1"><g transform="translate(292.716042, 516.950421)"><g><path d="M 4.59375 0 L 0.28125 -11.671875 L 3.625 -11.671875 L 5.578125 -5.671875 C 5.816406 -4.929688 6.03125 -4.1875 6.21875 -3.4375 C 6.40625 -2.6875 6.585938 -1.90625 6.765625 -1.09375 L 6.078125 -1.09375 C 6.265625 -1.90625 6.445312 -2.6875 6.625 -3.4375 C 6.800781 -4.1875 7.007812 -4.929688 7.25 -5.671875 L 9.171875 -11.671875 L 12.484375 -11.671875 L 8.171875 0 Z M 4.59375 0 "/></g></g></g><g fill="#b2ab2b" fill-opacity="1"><g transform="translate(305.089556, 516.950421)"><g><path d="M 6.59375 0.234375 C 5.394531 0.234375 4.363281 -0.0078125 3.5 -0.5 C 2.632812 -1 1.96875 -1.695312 1.5 -2.59375 C 1.03125 -3.5 0.796875 -4.5625 0.796875 -5.78125 C 0.796875 -6.988281 1.03125 -8.046875 1.5 -8.953125 C 1.96875 -9.859375 2.625 -10.566406 3.46875 -11.078125 C 4.3125 -11.585938 5.300781 -11.84375 6.4375 -11.84375 C 7.21875 -11.84375 7.941406 -11.710938 8.609375 -11.453125 C 9.285156 -11.203125 9.875 -10.828125 10.375 -10.328125 C 10.882812 -9.835938 11.273438 -9.21875 11.546875 -8.46875 C 11.828125 -7.726562 11.96875 -6.875 11.96875 -5.90625 L 11.96875 -5.015625 L 2.0625 -5.015625 L 2.0625 -7.015625 L 10.4375 -7.015625 L 8.96875 -6.5 C 8.96875 -7.101562 8.867188 -7.625 8.671875 -8.0625 C 8.484375 -8.507812 8.203125 -8.851562 7.828125 -9.09375 C 7.460938 -9.34375 7.007812 -9.46875 6.46875 -9.46875 C 5.925781 -9.46875 5.460938 -9.34375 5.078125 -9.09375 C 4.703125 -8.84375 4.410156 -8.503906 4.203125 -8.078125 C 4.003906 -7.648438 3.90625 -7.15625 3.90625 -6.59375 L 3.90625 -5.203125 C 3.90625 -4.546875 4.019531 -3.988281 4.25 -3.53125 C 4.476562 -3.070312 4.796875 -2.722656 5.203125 -2.484375 C 5.617188 -2.253906 6.101562 -2.140625 6.65625 -2.140625 C 7.03125 -2.140625 7.367188 -2.191406 7.671875 -2.296875 C 7.972656 -2.410156 8.234375 -2.570312 8.453125 -2.78125 C 8.671875 -2.988281 8.835938 -3.242188 8.953125 -3.546875 L 11.8125 -3.125 C 11.625 -2.445312 11.289062 -1.859375 10.8125 -1.359375 C 10.34375 -0.859375 9.75 -0.46875 9.03125 -0.1875 C 8.320312 0.09375 7.507812 0.234375 6.59375 0.234375 Z M 6.59375 0.234375 "/></g></g><g transform="translate(317.822643, 516.950421)"><g><path d="M 1.296875 0 L 1.296875 -11.671875 L 4.359375 -11.671875 L 4.359375 -9.65625 L 4.46875 -9.65625 C 4.675781 -10.363281 5.023438 -10.898438 5.515625 -11.265625 C 6.015625 -11.628906 6.601562 -11.8125 7.28125 -11.8125 C 7.445312 -11.8125 7.617188 -11.800781 7.796875 -11.78125 C 7.984375 -11.769531 8.144531 -11.753906 8.28125 -11.734375 L 8.28125 -8.9375 C 8.144531 -8.976562 7.941406 -9.007812 7.671875 -9.03125 C 7.410156 -9.0625 7.160156 -9.078125 6.921875 -9.078125 C 6.453125 -9.078125 6.03125 -8.972656 5.65625 -8.765625 C 5.28125 -8.554688 4.984375 -8.265625 4.765625 -7.890625 C 4.554688 -7.523438 4.453125 -7.085938 4.453125 -6.578125 L 4.453125 0 Z M 1.296875 0 "/></g></g><g transform="translate(326.484103, 516.950421)"><g/></g><g transform="translate(331.507538, 516.950421)"><g><path d="M 4.453125 -6.703125 L 4.453125 0 L 1.296875 0 L 1.296875 -15.75 L 4.40625 -15.75 L 4.40625 -8.734375 L 4.078125 -8.734375 C 4.398438 -9.722656 4.878906 -10.488281 5.515625 -11.03125 C 6.148438 -11.570312 6.96875 -11.84375 7.96875 -11.84375 C 8.78125 -11.84375 9.488281 -11.664062 10.09375 -11.3125 C 10.707031 -10.957031 11.179688 -10.445312 11.515625 -9.78125 C 11.847656 -9.125 12.015625 -8.332031 12.015625 -7.40625 L 12.015625 0 L 8.84375 0 L 8.84375 -6.84375 C 8.84375 -7.582031 8.65625 -8.15625 8.28125 -8.5625 C 7.914062 -8.976562 7.394531 -9.1875 6.71875 -9.1875 C 6.28125 -9.1875 5.890625 -9.085938 5.546875 -8.890625 C 5.203125 -8.703125 4.929688 -8.421875 4.734375 -8.046875 C 4.546875 -7.679688 4.453125 -7.234375 4.453125 -6.703125 Z M 4.453125 -6.703125 "/></g></g><g transform="translate(344.81171, 516.950421)"><g><path d="M 4.625 0.21875 C 3.875 0.21875 3.203125 0.0859375 2.609375 -0.171875 C 2.015625 -0.429688 1.546875 -0.816406 1.203125 -1.328125 C 0.867188 -1.847656 0.703125 -2.492188 0.703125 -3.265625 C 0.703125 -3.921875 0.820312 -4.46875 1.0625 -4.90625 C 1.300781 -5.34375 1.628906 -5.691406 2.046875 -5.953125 C 2.460938 -6.222656 2.9375 -6.425781 3.46875 -6.5625 C 4 -6.707031 4.5625 -6.804688 5.15625 -6.859375 C 5.832031 -6.929688 6.378906 -6.992188 6.796875 -7.046875 C 7.210938 -7.109375 7.515625 -7.203125 7.703125 -7.328125 C 7.898438 -7.460938 8 -7.65625 8 -7.90625 L 8 -7.96875 C 8 -8.289062 7.925781 -8.566406 7.78125 -8.796875 C 7.632812 -9.023438 7.421875 -9.195312 7.140625 -9.3125 C 6.867188 -9.4375 6.535156 -9.5 6.140625 -9.5 C 5.742188 -9.5 5.394531 -9.4375 5.09375 -9.3125 C 4.789062 -9.195312 4.546875 -9.035156 4.359375 -8.828125 C 4.171875 -8.617188 4.039062 -8.382812 3.96875 -8.125 L 1.0625 -8.484375 C 1.21875 -9.191406 1.523438 -9.796875 1.984375 -10.296875 C 2.441406 -10.796875 3.023438 -11.175781 3.734375 -11.4375 C 4.453125 -11.707031 5.265625 -11.84375 6.171875 -11.84375 C 6.835938 -11.84375 7.46875 -11.765625 8.0625 -11.609375 C 8.65625 -11.453125 9.1875 -11.210938 9.65625 -10.890625 C 10.125 -10.566406 10.488281 -10.15625 10.75 -9.65625 C 11.007812 -9.164062 11.140625 -8.570312 11.140625 -7.875 L 11.140625 0 L 8.125 0 L 8.125 -1.625 L 8.03125 -1.625 C 7.84375 -1.257812 7.59375 -0.9375 7.28125 -0.65625 C 6.96875 -0.382812 6.59375 -0.171875 6.15625 -0.015625 C 5.71875 0.140625 5.207031 0.21875 4.625 0.21875 Z M 5.515625 -1.984375 C 6.015625 -1.984375 6.445312 -2.082031 6.8125 -2.28125 C 7.1875 -2.476562 7.476562 -2.742188 7.6875 -3.078125 C 7.90625 -3.410156 8.015625 -3.785156 8.015625 -4.203125 L 8.015625 -5.4375 C 7.921875 -5.375 7.785156 -5.316406 7.609375 -5.265625 C 7.429688 -5.210938 7.226562 -5.160156 7 -5.109375 C 6.769531 -5.066406 6.539062 -5.03125 6.3125 -5 C 6.082031 -4.96875 5.875 -4.9375 5.6875 -4.90625 C 5.3125 -4.851562 4.972656 -4.765625 4.671875 -4.640625 C 4.378906 -4.515625 4.148438 -4.347656 3.984375 -4.140625 C 3.828125 -3.929688 3.75 -3.671875 3.75 -3.359375 C 3.75 -3.066406 3.820312 -2.816406 3.96875 -2.609375 C 4.125 -2.410156 4.332031 -2.253906 4.59375 -2.140625 C 4.851562 -2.035156 5.160156 -1.984375 5.515625 -1.984375 Z M 5.515625 -1.984375 "/></g></g><g transform="translate(357.248679, 516.950421)"><g><path d="M 5.625 0.203125 C 4.695312 0.203125 3.867188 -0.03125 3.140625 -0.5 C 2.421875 -0.976562 1.847656 -1.664062 1.421875 -2.5625 C 1.003906 -3.457031 0.796875 -4.546875 0.796875 -5.828125 C 0.796875 -7.128906 1.007812 -8.222656 1.4375 -9.109375 C 1.875 -10.003906 2.453125 -10.679688 3.171875 -11.140625 C 3.898438 -11.609375 4.710938 -11.84375 5.609375 -11.84375 C 6.234375 -11.84375 6.765625 -11.738281 7.203125 -11.53125 C 7.640625 -11.332031 8 -11.070312 8.28125 -10.75 C 8.570312 -10.4375 8.796875 -10.113281 8.953125 -9.78125 L 9.046875 -9.78125 L 9.046875 -15.75 L 12.1875 -15.75 L 12.1875 0 L 9.078125 0 L 9.078125 -1.84375 L 8.96875 -1.84375 C 8.800781 -1.507812 8.570312 -1.1875 8.28125 -0.875 C 7.988281 -0.5625 7.625 -0.300781 7.1875 -0.09375 C 6.757812 0.101562 6.238281 0.203125 5.625 0.203125 Z M 6.5625 -2.34375 C 7.101562 -2.34375 7.5625 -2.488281 7.9375 -2.78125 C 8.320312 -3.070312 8.613281 -3.476562 8.8125 -4 C 9.019531 -4.519531 9.125 -5.132812 9.125 -5.84375 C 9.125 -6.539062 9.019531 -7.148438 8.8125 -7.671875 C 8.613281 -8.191406 8.320312 -8.59375 7.9375 -8.875 C 7.5625 -9.164062 7.101562 -9.3125 6.5625 -9.3125 C 6.019531 -9.3125 5.5625 -9.164062 5.1875 -8.875 C 4.8125 -8.582031 4.523438 -8.175781 4.328125 -7.65625 C 4.140625 -7.132812 4.046875 -6.53125 4.046875 -5.84375 C 4.046875 -5.144531 4.140625 -4.53125 4.328125 -4 C 4.523438 -3.476562 4.8125 -3.070312 5.1875 -2.78125 C 5.5625 -2.488281 6.019531 -2.34375 6.5625 -2.34375 Z M 6.5625 -2.34375 "/></g></g><g transform="translate(370.743212, 516.950421)"><g/></g><g transform="translate(375.766648, 516.950421)"><g><path d="M 1.296875 0 L 1.296875 -11.671875 L 4.25 -11.671875 L 4.375 -8.828125 L 4.15625 -8.828125 C 4.34375 -9.535156 4.613281 -10.113281 4.96875 -10.5625 C 5.320312 -11.007812 5.738281 -11.335938 6.21875 -11.546875 C 6.695312 -11.753906 7.203125 -11.859375 7.734375 -11.859375 C 8.578125 -11.859375 9.269531 -11.59375 9.8125 -11.0625 C 10.363281 -10.539062 10.75 -9.75 10.96875 -8.6875 L 10.609375 -8.6875 C 10.773438 -9.40625 11.050781 -10 11.4375 -10.46875 C 11.832031 -10.9375 12.300781 -11.285156 12.84375 -11.515625 C 13.382812 -11.742188 13.957031 -11.859375 14.5625 -11.859375 C 15.28125 -11.859375 15.921875 -11.703125 16.484375 -11.390625 C 17.054688 -11.078125 17.503906 -10.625 17.828125 -10.03125 C 18.160156 -9.4375 18.328125 -8.707031 18.328125 -7.84375 L 18.328125 0 L 15.15625 0 L 15.15625 -7.25 C 15.15625 -7.914062 14.972656 -8.410156 14.609375 -8.734375 C 14.253906 -9.066406 13.816406 -9.234375 13.296875 -9.234375 C 12.890625 -9.234375 12.539062 -9.144531 12.25 -8.96875 C 11.957031 -8.800781 11.726562 -8.5625 11.5625 -8.25 C 11.40625 -7.9375 11.328125 -7.566406 11.328125 -7.140625 L 11.328125 0 L 8.28125 0 L 8.28125 -7.34375 C 8.28125 -7.914062 8.109375 -8.375 7.765625 -8.71875 C 7.421875 -9.0625 6.976562 -9.234375 6.4375 -9.234375 C 6.0625 -9.234375 5.722656 -9.144531 5.421875 -8.96875 C 5.128906 -8.800781 4.894531 -8.550781 4.71875 -8.21875 C 4.539062 -7.894531 4.453125 -7.492188 4.453125 -7.015625 L 4.453125 0 Z M 1.296875 0 "/></g></g><g transform="translate(395.384485, 516.950421)"><g><path d="M 4.625 0.21875 C 3.875 0.21875 3.203125 0.0859375 2.609375 -0.171875 C 2.015625 -0.429688 1.546875 -0.816406 1.203125 -1.328125 C 0.867188 -1.847656 0.703125 -2.492188 0.703125 -3.265625 C 0.703125 -3.921875 0.820312 -4.46875 1.0625 -4.90625 C 1.300781 -5.34375 1.628906 -5.691406 2.046875 -5.953125 C 2.460938 -6.222656 2.9375 -6.425781 3.46875 -6.5625 C 4 -6.707031 4.5625 -6.804688 5.15625 -6.859375 C 5.832031 -6.929688 6.378906 -6.992188 6.796875 -7.046875 C 7.210938 -7.109375 7.515625 -7.203125 7.703125 -7.328125 C 7.898438 -7.460938 8 -7.65625 8 -7.90625 L 8 -7.96875 C 8 -8.289062 7.925781 -8.566406 7.78125 -8.796875 C 7.632812 -9.023438 7.421875 -9.195312 7.140625 -9.3125 C 6.867188 -9.4375 6.535156 -9.5 6.140625 -9.5 C 5.742188 -9.5 5.394531 -9.4375 5.09375 -9.3125 C 4.789062 -9.195312 4.546875 -9.035156 4.359375 -8.828125 C 4.171875 -8.617188 4.039062 -8.382812 3.96875 -8.125 L 1.0625 -8.484375 C 1.21875 -9.191406 1.523438 -9.796875 1.984375 -10.296875 C 2.441406 -10.796875 3.023438 -11.175781 3.734375 -11.4375 C 4.453125 -11.707031 5.265625 -11.84375 6.171875 -11.84375 C 6.835938 -11.84375 7.46875 -11.765625 8.0625 -11.609375 C 8.65625 -11.453125 9.1875 -11.210938 9.65625 -10.890625 C 10.125 -10.566406 10.488281 -10.15625 10.75 -9.65625 C 11.007812 -9.164062 11.140625 -8.570312 11.140625 -7.875 L 11.140625 0 L 8.125 0 L 8.125 -1.625 L 8.03125 -1.625 C 7.84375 -1.257812 7.59375 -0.9375 7.28125 -0.65625 C 6.96875 -0.382812 6.59375 -0.171875 6.15625 -0.015625 C 5.71875 0.140625 5.207031 0.21875 4.625 0.21875 Z M 5.515625 -1.984375 C 6.015625 -1.984375 6.445312 -2.082031 6.8125 -2.28125 C 7.1875 -2.476562 7.476562 -2.742188 7.6875 -3.078125 C 7.90625 -3.410156 8.015625 -3.785156 8.015625 -4.203125 L 8.015625 -5.4375 C 7.921875 -5.375 7.785156 -5.316406 7.609375 -5.265625 C 7.429688 -5.210938 7.226562 -5.160156 7 -5.109375 C 6.769531 -5.066406 6.539062 -5.03125 6.3125 -5 C 6.082031 -4.96875 5.875 -4.9375 5.6875 -4.90625 C 5.3125 -4.851562 4.972656 -4.765625 4.671875 -4.640625 C 4.378906 -4.515625 4.148438 -4.347656 3.984375 -4.140625 C 3.828125 -3.929688 3.75 -3.671875 3.75 -3.359375 C 3.75 -3.066406 3.820312 -2.816406 3.96875 -2.609375 C 4.125 -2.410156 4.332031 -2.253906 4.59375 -2.140625 C 4.851562 -2.035156 5.160156 -1.984375 5.515625 -1.984375 Z M 5.515625 -1.984375 "/></g></g><g transform="translate(407.821453, 516.950421)"><g><path d="M 7.28125 -11.671875 L 7.28125 -9.25 L 0.203125 -9.25 L 0.203125 -11.671875 Z M 1.90625 -14.546875 L 5.046875 -14.546875 L 5.046875 -3.453125 C 5.046875 -3.078125 5.128906 -2.800781 5.296875 -2.625 C 5.460938 -2.457031 5.742188 -2.375 6.140625 -2.375 C 6.273438 -2.375 6.453125 -2.382812 6.671875 -2.40625 C 6.898438 -2.4375 7.070312 -2.460938 7.1875 -2.484375 L 7.546875 -0.078125 C 7.222656 -0.00390625 6.890625 0.046875 6.546875 0.078125 C 6.203125 0.109375 5.867188 0.125 5.546875 0.125 C 4.347656 0.125 3.441406 -0.148438 2.828125 -0.703125 C 2.210938 -1.253906 1.90625 -2.0625 1.90625 -3.125 Z M 1.90625 -14.546875 "/></g></g></g><g fill="#b2ab2b" fill-opacity="1"><g transform="translate(415.562832, 516.950421)"><g><path d="M 6.546875 0.234375 C 5.378906 0.234375 4.363281 -0.015625 3.5 -0.515625 C 2.632812 -1.023438 1.96875 -1.734375 1.5 -2.640625 C 1.03125 -3.546875 0.796875 -4.597656 0.796875 -5.796875 C 0.796875 -7.003906 1.03125 -8.0625 1.5 -8.96875 C 1.96875 -9.875 2.632812 -10.578125 3.5 -11.078125 C 4.363281 -11.585938 5.378906 -11.84375 6.546875 -11.84375 C 7.253906 -11.84375 7.90625 -11.75 8.5 -11.5625 C 9.101562 -11.375 9.632812 -11.101562 10.09375 -10.75 C 10.550781 -10.394531 10.925781 -9.96875 11.21875 -9.46875 C 11.507812 -8.976562 11.703125 -8.421875 11.796875 -7.796875 L 8.84375 -7.375 C 8.78125 -7.675781 8.679688 -7.945312 8.546875 -8.1875 C 8.421875 -8.425781 8.265625 -8.632812 8.078125 -8.8125 C 7.890625 -8.988281 7.671875 -9.117188 7.421875 -9.203125 C 7.171875 -9.296875 6.890625 -9.34375 6.578125 -9.34375 C 6.015625 -9.34375 5.546875 -9.191406 5.171875 -8.890625 C 4.796875 -8.597656 4.507812 -8.1875 4.3125 -7.65625 C 4.113281 -7.125 4.015625 -6.507812 4.015625 -5.8125 C 4.015625 -5.113281 4.113281 -4.492188 4.3125 -3.953125 C 4.507812 -3.421875 4.796875 -3.003906 5.171875 -2.703125 C 5.546875 -2.410156 6.015625 -2.265625 6.578125 -2.265625 C 6.890625 -2.265625 7.171875 -2.3125 7.421875 -2.40625 C 7.671875 -2.5 7.890625 -2.632812 8.078125 -2.8125 C 8.273438 -2.988281 8.4375 -3.203125 8.5625 -3.453125 C 8.695312 -3.703125 8.789062 -3.984375 8.84375 -4.296875 L 11.8125 -3.875 C 11.71875 -3.238281 11.523438 -2.671875 11.234375 -2.171875 C 10.941406 -1.671875 10.566406 -1.238281 10.109375 -0.875 C 9.648438 -0.519531 9.117188 -0.242188 8.515625 -0.046875 C 7.910156 0.140625 7.253906 0.234375 6.546875 0.234375 Z M 6.546875 0.234375 "/></g></g><g transform="translate(428.147859, 516.950421)"><g><path d="M 4.453125 -6.703125 L 4.453125 0 L 1.296875 0 L 1.296875 -15.75 L 4.40625 -15.75 L 4.40625 -8.734375 L 4.078125 -8.734375 C 4.398438 -9.722656 4.878906 -10.488281 5.515625 -11.03125 C 6.148438 -11.570312 6.96875 -11.84375 7.96875 -11.84375 C 8.78125 -11.84375 9.488281 -11.664062 10.09375 -11.3125 C 10.707031 -10.957031 11.179688 -10.445312 11.515625 -9.78125 C 11.847656 -9.125 12.015625 -8.332031 12.015625 -7.40625 L 12.015625 0 L 8.84375 0 L 8.84375 -6.84375 C 8.84375 -7.582031 8.65625 -8.15625 8.28125 -8.5625 C 7.914062 -8.976562 7.394531 -9.1875 6.71875 -9.1875 C 6.28125 -9.1875 5.890625 -9.085938 5.546875 -8.890625 C 5.203125 -8.703125 4.929688 -8.421875 4.734375 -8.046875 C 4.546875 -7.679688 4.453125 -7.234375 4.453125 -6.703125 Z M 4.453125 -6.703125 "/></g></g><g transform="translate(441.452031, 516.950421)"><g><path d="M 4.625 0.21875 C 3.875 0.21875 3.203125 0.0859375 2.609375 -0.171875 C 2.015625 -0.429688 1.546875 -0.816406 1.203125 -1.328125 C 0.867188 -1.847656 0.703125 -2.492188 0.703125 -3.265625 C 0.703125 -3.921875 0.820312 -4.46875 1.0625 -4.90625 C 1.300781 -5.34375 1.628906 -5.691406 2.046875 -5.953125 C 2.460938 -6.222656 2.9375 -6.425781 3.46875 -6.5625 C 4 -6.707031 4.5625 -6.804688 5.15625 -6.859375 C 5.832031 -6.929688 6.378906 -6.992188 6.796875 -7.046875 C 7.210938 -7.109375 7.515625 -7.203125 7.703125 -7.328125 C 7.898438 -7.460938 8 -7.65625 8 -7.90625 L 8 -7.96875 C 8 -8.289062 7.925781 -8.566406 7.78125 -8.796875 C 7.632812 -9.023438 7.421875 -9.195312 7.140625 -9.3125 C 6.867188 -9.4375 6.535156 -9.5 6.140625 -9.5 C 5.742188 -9.5 5.394531 -9.4375 5.09375 -9.3125 C 4.789062 -9.195312 4.546875 -9.035156 4.359375 -8.828125 C 4.171875 -8.617188 4.039062 -8.382812 3.96875 -8.125 L 1.0625 -8.484375 C 1.21875 -9.191406 1.523438 -9.796875 1.984375 -10.296875 C 2.441406 -10.796875 3.023438 -11.175781 3.734375 -11.4375 C 4.453125 -11.707031 5.265625 -11.84375 6.171875 -11.84375 C 6.835938 -11.84375 7.46875 -11.765625 8.0625 -11.609375 C 8.65625 -11.453125 9.1875 -11.210938 9.65625 -10.890625 C 10.125 -10.566406 10.488281 -10.15625 10.75 -9.65625 C 11.007812 -9.164062 11.140625 -8.570312 11.140625 -7.875 L 11.140625 0 L 8.125 0 L 8.125 -1.625 L 8.03125 -1.625 C 7.84375 -1.257812 7.59375 -0.9375 7.28125 -0.65625 C 6.96875 -0.382812 6.59375 -0.171875 6.15625 -0.015625 C 5.71875 0.140625 5.207031 0.21875 4.625 0.21875 Z M 5.515625 -1.984375 C 6.015625 -1.984375 6.445312 -2.082031 6.8125 -2.28125 C 7.1875 -2.476562 7.476562 -2.742188 7.6875 -3.078125 C 7.90625 -3.410156 8.015625 -3.785156 8.015625 -4.203125 L 8.015625 -5.4375 C 7.921875 -5.375 7.785156 -5.316406 7.609375 -5.265625 C 7.429688 -5.210938 7.226562 -5.160156 7 -5.109375 C 6.769531 -5.066406 6.539062 -5.03125 6.3125 -5 C 6.082031 -4.96875 5.875 -4.9375 5.6875 -4.90625 C 5.3125 -4.851562 4.972656 -4.765625 4.671875 -4.640625 C 4.378906 -4.515625 4.148438 -4.347656 3.984375 -4.140625 C 3.828125 -3.929688 3.75 -3.671875 3.75 -3.359375 C 3.75 -3.066406 3.820312 -2.816406 3.96875 -2.609375 C 4.125 -2.410156 4.332031 -2.253906 4.59375 -2.140625 C 4.851562 -2.035156 5.160156 -1.984375 5.515625 -1.984375 Z M 5.515625 -1.984375 "/></g></g><g transform="translate(453.888999, 516.950421)"><g><path d="M 0.65625 2.984375 C 1.226562 1.679688 1.6875 0.5 2.03125 -0.5625 C 2.382812 -1.625 2.644531 -2.625 2.8125 -3.5625 C 2.976562 -4.507812 3.0625 -5.453125 3.0625 -6.390625 C 3.0625 -7.460938 2.960938 -8.585938 2.765625 -9.765625 C 2.566406 -10.941406 2.285156 -12.117188 1.921875 -13.296875 C 1.566406 -14.484375 1.144531 -15.613281 0.65625 -16.6875 L 3.609375 -16.6875 C 4.128906 -15.84375 4.585938 -14.84375 4.984375 -13.6875 C 5.390625 -12.53125 5.703125 -11.316406 5.921875 -10.046875 C 6.148438 -8.785156 6.265625 -7.566406 6.265625 -6.390625 C 6.265625 -4.765625 6.035156 -3.15625 5.578125 -1.5625 C 5.128906 0.0195312 4.472656 1.535156 3.609375 2.984375 Z M 0.65625 2.984375 "/></g></g></g><g clip-path="url(#0ee9908996)"><g clip-path="url(#a0ac46982c)"><path fill="#b2ab2b" d="M 210.285156 81.867188 L 240.011719 81.867188 L 240.011719 111.59375 L 210.285156 111.59375 Z M 210.285156 81.867188 " fill-opacity="1" fill-rule="nonzero"/></g></g><g clip-path="url(#60ef3a9eb1)"><g clip-path="url(#a2db937c49)"><path fill="#b2ab2b" d="M 210.285156 170.859375 L 240.011719 170.859375 L 240.011719 200.585938 L 210.285156 200.585938 Z M 210.285156 170.859375 " fill-opacity="1" fill-rule="nonzero"/></g></g><g clip-path="url(#4f28db178d)"><g clip-path="url(#fa0d522953)"><path fill="#b2ab2b" d="M 803.558594 249.417969 L 833.289062 249.417969 L 833.289062 279.144531 L 803.558594 279.144531 Z M 803.558594 249.417969 " fill-opacity="1" fill-rule="nonzero"/></g></g><g clip-path="url(#9d735be626)"><g clip-path="url(#dd0aabb6e1)"><path fill="#b2ab2b" d="M 330.613281 331.199219 L 360.339844 331.199219 L 360.339844 360.925781 L 330.613281 360.925781 Z M 330.613281 331.199219 " fill-opacity="1" fill-rule="nonzero"/></g></g><g clip-path="url(#dd5d6f9e5a)"><g clip-path="url(#aaa8761d3e)"><path fill="#b2ab2b" d="M 210.285156 412.851562 L 240.011719 412.851562 L 240.011719 442.578125 L 210.285156 442.578125 Z M 210.285156 412.851562 " fill-opacity="1" fill-rule="nonzero"/></g></g><g clip-path="url(#3217b7ef34)"><g clip-path="url(#84ed5f38cc)"><path fill="#b2ab2b" d="M 285.371094 562.40625 L 315.097656 562.40625 L 315.097656 592.132812 L 285.371094 592.132812 Z M 285.371094 562.40625 " fill-opacity="1" fill-rule="nonzero"/></g></g></svg>